<svg role="img" viewBox="0 0 24 24" xmlns="http://www.w3.org/2000/svg" fill="currentColor">
  <title>Zustand</title>
  <!-- Bear icon representing Zustand's mascot -->
  <path d="M12 2c-1.1 0-2 .9-2 2s.9 2 2 2 2-.9 2-2-.9-2-2-2zm-8 2c-1.1 0-2 .9-2 2s.9 2 2 2 2-.9 2-2-.9-2-2-2zm16 0c-1.1 0-2 .9-2 2s.9 2 2 2 2-.9 2-2-.9-2-2-2zM12 8c-4.42 0-8 3.58-8 8s3.58 8 8 8 8-3.58 8-8-3.58-8-8-8zm-3 6c0-.55.45-1 1-1s1 .45 1 1-.45 1-1 1-1-.45-1-1zm6 0c0-.55.45-1 1-1s1 .45 1 1-.45 1-1 1-1-.45-1-1zm-3 4c-1.66 0-3-1.34-3-3h6c0 1.66-1.34 3-3 3z"/>
</svg>
